<svg width="1062" height="928" viewBox="0 0 1062 928" fill="none" xmlns="http://www.w3.org/2000/svg">
<path d="M1056.89 -1.65509e-05C1073.08 195.04 1047.53 390.034 989.16 567.23C945.975 698.329 884.615 820.801 808.446 928L2.99811e-05 928L0 -3.67272e-05L1056.89 -1.65509e-05Z" fill="url(#paint0_linear_0_1)"/>
<path d="M748.562 469.995C742.646 469.995 737.306 468.689 732.542 466.076C727.855 463.387 724.166 459.699 721.477 455.012C718.788 450.325 717.443 444.792 717.443 438.415C717.443 432.037 718.788 426.505 721.477 421.818C724.166 417.131 727.855 413.481 732.542 410.868C737.306 408.256 742.646 406.95 748.562 406.95C753.71 406.95 758.321 408.102 762.393 410.407C766.466 412.636 769.693 416.055 772.075 420.665C774.457 425.275 775.648 431.192 775.648 438.415C775.648 445.561 774.495 451.477 772.19 456.164C769.885 460.775 766.696 464.232 762.624 466.538C758.551 468.843 753.864 469.995 748.562 469.995ZM750.291 457.663C753.749 457.663 756.822 456.894 759.512 455.358C762.278 453.821 764.468 451.593 766.081 448.673C767.772 445.753 768.617 442.334 768.617 438.415C768.617 434.419 767.772 431 766.081 428.157C764.468 425.237 762.278 423.009 759.512 421.472C756.822 419.935 753.749 419.167 750.291 419.167C746.833 419.167 743.722 419.935 740.955 421.472C738.266 423.009 736.076 425.237 734.386 428.157C732.772 431 731.965 434.419 731.965 438.415C731.965 442.334 732.772 445.753 734.386 448.673C736.076 451.593 738.266 453.821 740.955 455.358C743.722 456.894 746.833 457.663 750.291 457.663ZM768.963 469.188V454.666L769.539 438.3L768.386 421.933V383.668H782.678V469.188H768.963Z" fill="white"/>
<path d="M670.11 469.997C664.885 469.997 660.275 469.037 656.279 467.116C652.283 465.118 649.172 462.121 646.943 458.126C644.715 454.053 643.601 448.944 643.601 442.797V407.643H658.008V440.837C658.008 446.369 659.237 450.519 661.696 453.285C664.232 455.974 667.805 457.319 672.415 457.319C675.796 457.319 678.716 456.627 681.174 455.244C683.71 453.861 685.669 451.787 687.052 449.02C688.512 446.254 689.242 442.835 689.242 438.763V407.643H703.649V469.19H689.934V452.593L692.354 457.665C690.28 461.66 687.245 464.734 683.249 466.885C679.253 468.96 674.874 469.997 670.11 469.997Z" fill="white"/>
<path d="M597.439 469.994C591.138 469.994 585.529 468.65 580.611 465.96C575.694 463.194 571.814 459.429 568.971 454.665C566.128 449.901 564.706 444.484 564.706 438.414C564.706 432.267 566.128 426.85 568.971 422.163C571.814 417.399 575.694 413.672 580.611 410.983C585.529 408.293 591.138 406.949 597.439 406.949C603.816 406.949 609.464 408.293 614.382 410.983C619.376 413.672 623.256 417.36 626.022 422.047C628.865 426.734 630.287 432.19 630.287 438.414C630.287 444.484 628.865 449.901 626.022 454.665C623.256 459.429 619.376 463.194 614.382 465.96C609.464 468.65 603.816 469.994 597.439 469.994ZM597.439 457.662C600.973 457.662 604.124 456.893 606.89 455.357C609.656 453.82 611.807 451.592 613.344 448.672C614.958 445.752 615.765 442.333 615.765 438.414C615.765 434.418 614.958 430.999 613.344 428.156C611.807 425.236 609.656 423.008 606.89 421.471C604.124 419.934 601.012 419.166 597.554 419.166C594.02 419.166 590.869 419.934 588.103 421.471C585.414 423.008 583.262 425.236 581.649 428.156C580.035 430.999 579.228 434.418 579.228 438.414C579.228 442.333 580.035 445.752 581.649 448.672C583.262 451.592 585.414 453.82 588.103 455.357C590.869 456.893 593.981 457.662 597.439 457.662Z" fill="white"/>
<path d="M536.46 469.188V383.668H550.867V469.188H536.46Z" fill="white"/>
<path d="M491.448 470.342C485.301 470.342 479.577 469.343 474.275 467.345C469.05 465.27 464.478 462.389 460.559 458.701C456.717 454.936 453.721 450.517 451.569 445.446C449.418 440.375 448.342 434.842 448.342 428.849C448.342 422.856 449.418 417.323 451.569 412.252C453.721 407.181 456.756 402.801 460.674 399.113C464.593 395.348 469.165 392.466 474.39 390.468C479.615 388.394 485.339 387.357 491.563 387.357C498.171 387.357 504.203 388.509 509.658 390.814C515.114 393.043 519.724 396.385 523.489 400.842L513.808 409.947C510.888 406.797 507.622 404.453 504.011 402.916C500.4 401.303 496.481 400.496 492.255 400.496C488.029 400.496 484.148 401.187 480.614 402.57C477.156 403.954 474.121 405.913 471.509 408.449C468.973 410.984 466.975 413.981 465.515 417.439C464.132 420.896 463.441 424.7 463.441 428.849C463.441 432.998 464.132 436.802 465.515 440.26C466.975 443.717 468.973 446.714 471.509 449.25C474.121 451.785 477.156 453.745 480.614 455.128C484.148 456.511 488.029 457.202 492.255 457.202C496.481 457.202 500.4 456.434 504.011 454.897C507.622 453.284 510.888 450.863 513.808 447.636L523.489 456.857C519.724 461.236 515.114 464.579 509.658 466.884C504.203 469.189 498.133 470.342 491.448 470.342Z" fill="white"/>
<path d="M406.096 469.994C399.795 469.994 394.186 468.65 389.268 465.96C384.351 463.194 380.471 459.429 377.628 454.665C374.785 449.901 373.363 444.484 373.363 438.414C373.363 432.267 374.785 426.85 377.628 422.163C380.471 417.399 384.351 413.672 389.268 410.983C394.186 408.293 399.795 406.949 406.096 406.949C412.473 406.949 418.121 408.293 423.039 410.983C428.033 413.672 431.913 417.36 434.679 422.047C437.522 426.734 438.944 432.19 438.944 438.414C438.944 444.484 437.522 449.901 434.679 454.665C431.913 459.429 428.033 463.194 423.039 465.96C418.121 468.65 412.473 469.994 406.096 469.994ZM406.096 457.662C409.63 457.662 412.781 456.893 415.547 455.357C418.313 453.82 420.464 451.592 422.001 448.672C423.615 445.752 424.422 442.333 424.422 438.414C424.422 434.418 423.615 430.999 422.001 428.156C420.464 425.236 418.313 423.008 415.547 421.471C412.781 419.934 409.669 419.166 406.211 419.166C402.677 419.166 399.526 419.934 396.76 421.471C394.071 423.008 391.919 425.236 390.306 428.156C388.692 430.999 387.885 434.418 387.885 438.414C387.885 442.333 388.692 445.752 390.306 448.672C391.919 451.592 394.071 453.82 396.76 455.357C399.526 456.893 402.638 457.662 406.096 457.662Z" fill="white"/>
<path d="M343.009 469.191V388.511H357.993V469.191H343.009Z" fill="white"/>
<path fill-rule="evenodd" clip-rule="evenodd" d="M231.064 493.434C267.955 493.434 297.86 463.528 297.86 426.638C297.86 389.747 267.955 359.842 231.064 359.842C194.174 359.842 164.269 389.747 164.269 426.638C164.269 463.528 194.174 493.434 231.064 493.434ZM231.064 499.079C271.072 499.079 303.505 466.646 303.505 426.638C303.505 386.63 271.072 354.197 231.064 354.197C191.057 354.197 158.624 386.63 158.624 426.638C158.624 466.646 191.057 499.079 231.064 499.079Z" fill="white"/>
<path fill-rule="evenodd" clip-rule="evenodd" d="M278.818 444.162C280.047 408.949 252.498 379.406 217.285 378.176L217.416 374.415C254.706 375.717 283.881 407.003 282.579 444.294L278.818 444.162Z" fill="white"/>
<path fill-rule="evenodd" clip-rule="evenodd" d="M180.774 446.613C195.04 462.308 215.709 473.682 239.126 474.854L238.938 478.612C214.405 477.385 192.837 465.48 177.989 449.145C163.161 432.832 154.878 411.919 157.226 392.544C158.249 384.109 162.676 379.447 167.715 377.126C172.617 374.869 177.96 374.878 181.042 375.392L180.423 379.104C177.859 378.676 173.324 378.686 169.289 380.544C165.39 382.34 161.821 385.909 160.962 392.997C158.776 411.028 166.486 430.896 180.774 446.613Z" fill="white"/>
<path fill-rule="evenodd" clip-rule="evenodd" d="M262.392 363.509C265.968 360.616 269.699 359.505 272.891 361.448C274.322 362.319 275.211 363.936 275.493 365.751C275.784 367.628 275.355 369.221 274.769 369.934L277.674 372.326C279.174 370.504 279.602 367.69 279.211 365.174C278.811 362.597 277.481 359.836 274.847 358.233C269.572 355.022 264.01 357.36 260.025 360.584C257.985 362.234 256.198 364.227 254.816 366.173C253.449 368.097 252.4 370.085 251.939 371.75L255.565 372.756C255.868 371.664 256.658 370.078 257.884 368.352C259.094 366.649 260.653 364.917 262.392 363.509Z" fill="white"/>
<path fill-rule="evenodd" clip-rule="evenodd" d="M227.128 417.631C244.001 415.004 259.945 406.208 271.286 391.691L274.251 394.008C262.298 409.307 245.487 418.581 227.707 421.349L227.128 417.631Z" fill="white"/>
<path fill-rule="evenodd" clip-rule="evenodd" d="M194.096 440.711C193.011 452.753 196.323 465.214 204.354 475.493L201.388 477.81C192.746 466.748 189.18 453.33 190.348 440.373L194.096 440.711Z" fill="white"/>
<path fill-rule="evenodd" clip-rule="evenodd" d="M166.104 419.087C172.513 412.838 180.172 408.568 185.727 406.525L187.026 410.057C181.919 411.935 174.726 415.936 168.731 421.781C162.742 427.621 158.088 435.156 157.681 444.127C156.792 463.682 170.498 476.217 186.785 479.836L185.968 483.51C168.386 479.603 152.929 465.796 153.921 443.956C154.386 433.721 159.69 425.341 166.104 419.087Z" fill="white"/>
<path fill-rule="evenodd" clip-rule="evenodd" d="M247.743 491.591C243.686 486.473 240.934 480.554 239.624 476.623L243.194 475.433C244.392 479.029 246.956 484.541 250.692 489.254C254.451 493.996 259.165 497.648 264.628 498.145C271.841 498.801 275.984 496.299 278.003 492.838C280.103 489.238 280.202 484.108 278.229 479.066L281.733 477.695C283.994 483.472 284.093 489.867 281.254 494.734C278.333 499.74 272.598 502.648 264.288 501.893C257.333 501.26 251.777 496.681 247.743 491.591Z" fill="white"/>
<path d="M199.189 437.93C199.189 441.047 196.661 443.574 193.544 443.574C190.426 443.574 187.899 441.047 187.899 437.93C187.899 434.812 190.426 432.285 193.544 432.285C196.661 432.285 199.189 434.812 199.189 437.93Z" fill="white"/>
<path d="M210.478 480.264C210.478 483.381 207.95 485.908 204.833 485.908C201.715 485.908 199.188 483.381 199.188 480.264C199.188 477.146 201.715 474.619 204.833 474.619C207.95 474.619 210.478 477.146 210.478 480.264Z" fill="white"/>
<path d="M247.169 477.442C247.169 480.56 244.642 483.087 241.524 483.087C238.407 483.087 235.879 480.56 235.879 477.442C235.879 474.325 238.407 471.797 241.524 471.797C244.642 471.797 247.169 474.325 247.169 477.442Z" fill="white"/>
<path d="M231.173 420.051C231.173 423.169 228.646 425.696 225.528 425.696C222.411 425.696 219.884 423.169 219.884 420.051C219.884 416.934 222.411 414.406 225.528 414.406C228.646 414.406 231.173 416.934 231.173 420.051Z" fill="white"/>
<path d="M281.037 389.946C281.037 393.064 278.51 395.591 275.392 395.591C272.275 395.591 269.748 393.064 269.748 389.946C269.748 386.829 272.275 384.302 275.392 384.302C278.51 384.302 281.037 386.829 281.037 389.946Z" fill="white"/>
<path d="M221.768 376.776C221.768 379.894 219.241 382.421 216.123 382.421C213.006 382.421 210.479 379.894 210.479 376.776C210.479 373.659 213.006 371.132 216.123 371.132C219.241 371.132 221.768 373.659 221.768 376.776Z" fill="white"/>
<path d="M258.456 374.896C258.456 378.013 255.929 380.54 252.811 380.54C249.694 380.54 247.167 378.013 247.167 374.896C247.167 371.778 249.694 369.251 252.811 369.251C255.929 369.251 258.456 371.778 258.456 374.896Z" fill="white"/>
<path d="M286.684 442.632C286.684 445.749 284.157 448.277 281.039 448.277C277.922 448.277 275.395 445.749 275.395 442.632C275.395 439.514 277.922 436.987 281.039 436.987C284.157 436.987 286.684 439.514 286.684 442.632Z" fill="white"/>
<path d="M194.485 407.822C194.485 410.939 191.958 413.467 188.84 413.467C185.723 413.467 183.195 410.939 183.195 407.822C183.195 404.704 185.723 402.177 188.84 402.177C191.958 402.177 194.485 404.704 194.485 407.822Z" fill="white"/>
<defs>
<linearGradient id="paint0_linear_0_1" x1="1061.66" y1="464" x2="-91" y2="464" gradientUnits="userSpaceOnUse">
<stop stop-color="#3D5BAE"/>
<stop offset="1" stop-color="#163282"/>
</linearGradient>
</defs>
</svg>
