<svg width="630" height="151" viewBox="0 0 630 151" fill="none" xmlns="http://www.w3.org/2000/svg">
<path d="M595.562 117.995C589.646 117.995 584.306 116.689 579.542 114.076C574.855 111.387 571.166 107.699 568.477 103.012C565.788 98.3247 564.443 92.7923 564.443 86.4148C564.443 80.0372 565.788 74.5049 568.477 69.8178C571.166 65.1307 574.855 61.4808 579.542 58.8683C584.306 56.2559 589.646 54.9496 595.562 54.9496C600.71 54.9496 605.321 56.1022 609.393 58.4073C613.466 60.6356 616.693 64.0549 619.075 68.6652C621.457 73.2755 622.648 79.192 622.648 86.4148C622.648 93.5607 621.495 99.4773 619.19 104.164C616.885 108.775 613.696 112.232 609.624 114.538C605.551 116.843 600.864 117.995 595.562 117.995ZM597.291 105.663C600.749 105.663 603.822 104.894 606.512 103.358C609.278 101.821 611.468 99.5925 613.081 96.6727C614.772 93.7528 615.617 90.3335 615.617 86.4148C615.617 82.4192 614.772 78.9999 613.081 76.1569C611.468 73.2371 609.278 71.0088 606.512 69.472C603.822 67.9352 600.749 67.1669 597.291 67.1669C593.833 67.1669 590.722 67.9352 587.955 69.472C585.266 71.0088 583.076 73.2371 581.386 76.1569C579.772 78.9999 578.965 82.4192 578.965 86.4148C578.965 90.3335 579.772 93.7528 581.386 96.6727C583.076 99.5925 585.266 101.821 587.955 103.358C590.722 104.894 593.833 105.663 597.291 105.663ZM615.963 117.188V102.666L616.539 86.2995L615.386 69.933V31.6677H629.678V117.188H615.963Z" fill="white"/>
<path d="M517.11 117.997C511.885 117.997 507.275 117.037 503.279 115.116C499.283 113.118 496.172 110.121 493.943 106.126C491.715 102.053 490.601 96.9436 490.601 90.7965V55.6431H505.008V88.8372C505.008 94.3695 506.237 98.5187 508.696 101.285C511.232 103.974 514.805 105.319 519.415 105.319C522.796 105.319 525.716 104.627 528.174 103.244C530.71 101.861 532.669 99.7866 534.052 97.0204C535.512 94.2542 536.242 90.8349 536.242 86.7625V55.6431H550.649V117.19H536.934V100.593L539.354 105.665C537.28 109.66 534.245 112.734 530.249 114.885C526.253 116.96 521.874 117.997 517.11 117.997Z" fill="white"/>
<path d="M444.439 117.994C438.138 117.994 432.529 116.65 427.611 113.96C422.694 111.194 418.814 107.429 415.971 102.665C413.128 97.9012 411.706 92.4841 411.706 86.4139C411.706 80.2668 413.128 74.8497 415.971 70.1626C418.814 65.3987 422.694 61.672 427.611 58.9827C432.529 56.2934 438.138 54.9487 444.439 54.9487C450.816 54.9487 456.464 56.2934 461.382 58.9827C466.376 61.672 470.256 65.3603 473.022 70.0474C475.865 74.7345 477.287 80.19 477.287 86.4139C477.287 92.4841 475.865 97.9012 473.022 102.665C470.256 107.429 466.376 111.194 461.382 113.96C456.464 116.65 450.816 117.994 444.439 117.994ZM444.439 105.662C447.973 105.662 451.124 104.893 453.89 103.357C456.656 101.82 458.807 99.5916 460.344 96.6717C461.958 93.7519 462.765 90.3326 462.765 86.4139C462.765 82.4183 461.958 78.999 460.344 76.156C458.807 73.2361 456.656 71.0078 453.89 69.4711C451.124 67.9343 448.012 67.1659 444.554 67.1659C441.02 67.1659 437.869 67.9343 435.103 69.4711C432.414 71.0078 430.262 73.2361 428.649 76.156C427.035 78.999 426.228 82.4183 426.228 86.4139C426.228 90.3326 427.035 93.7519 428.649 96.6717C430.262 99.5916 432.414 101.82 435.103 103.357C437.869 104.893 440.981 105.662 444.439 105.662Z" fill="white"/>
<path d="M383.46 117.188V31.6677H397.867V117.188H383.46Z" fill="white"/>
<path d="M338.448 118.342C332.301 118.342 326.577 117.343 321.275 115.345C316.05 113.27 311.478 110.389 307.559 106.701C303.717 102.936 300.721 98.5174 298.569 93.4461C296.418 88.3748 295.342 82.8424 295.342 76.8491C295.342 70.8557 296.418 65.3234 298.569 60.2521C300.721 55.1807 303.756 50.801 307.674 47.1128C311.593 43.3477 316.165 40.4663 321.39 38.4685C326.615 36.3939 332.339 35.3565 338.563 35.3565C345.171 35.3565 351.203 36.5091 356.658 38.8143C362.114 41.0426 366.724 44.385 370.489 48.8416L360.808 57.9469C357.888 54.7966 354.622 52.453 351.011 50.9162C347.4 49.3026 343.481 48.4958 339.255 48.4958C335.029 48.4958 331.148 49.1874 327.614 50.5705C324.156 51.9536 321.121 53.9129 318.509 56.4486C315.973 58.9842 313.975 61.9809 312.515 65.4386C311.132 68.8963 310.441 72.6998 310.441 76.8491C310.441 80.9983 311.132 84.8018 312.515 88.2595C313.975 91.7172 315.973 94.7139 318.509 97.2496C321.121 99.7852 324.156 101.745 327.614 103.128C331.148 104.511 335.029 105.202 339.255 105.202C343.481 105.202 347.4 104.434 351.011 102.897C354.622 101.284 357.888 98.8632 360.808 95.636L370.489 104.857C366.724 109.236 362.114 112.579 356.658 114.884C351.203 117.189 345.133 118.342 338.448 118.342Z" fill="white"/>
<path d="M253.096 117.994C246.795 117.994 241.186 116.65 236.268 113.96C231.351 111.194 227.471 107.429 224.628 102.665C221.785 97.9012 220.363 92.4841 220.363 86.4139C220.363 80.2668 221.785 74.8497 224.628 70.1626C227.471 65.3987 231.351 61.672 236.268 58.9827C241.186 56.2934 246.795 54.9487 253.096 54.9487C259.473 54.9487 265.121 56.2934 270.039 58.9827C275.033 61.672 278.913 65.3603 281.679 70.0474C284.522 74.7345 285.944 80.19 285.944 86.4139C285.944 92.4841 284.522 97.9012 281.679 102.665C278.913 107.429 275.033 111.194 270.039 113.96C265.121 116.65 259.473 117.994 253.096 117.994ZM253.096 105.662C256.63 105.662 259.781 104.893 262.547 103.357C265.313 101.82 267.464 99.5916 269.001 96.6717C270.615 93.7519 271.422 90.3326 271.422 86.4139C271.422 82.4183 270.615 78.999 269.001 76.156C267.464 73.2361 265.313 71.0078 262.547 69.4711C259.781 67.9343 256.669 67.1659 253.211 67.1659C249.677 67.1659 246.526 67.9343 243.76 69.4711C241.071 71.0078 238.919 73.2361 237.306 76.156C235.692 78.999 234.885 82.4183 234.885 86.4139C234.885 90.3326 235.692 93.7519 237.306 96.6717C238.919 99.5916 241.071 101.82 243.76 103.357C246.526 104.893 249.638 105.662 253.096 105.662Z" fill="white"/>
<path d="M190.009 117.191V36.5109H204.993V117.191H190.009Z" fill="white"/>
<path fill-rule="evenodd" clip-rule="evenodd" d="M78.0644 141.434C114.955 141.434 144.86 111.528 144.86 74.6379C144.86 37.7474 114.955 7.84171 78.0644 7.84171C41.174 7.84171 11.2685 37.7474 11.2685 74.6379C11.2685 111.528 41.174 141.434 78.0644 141.434ZM78.0644 147.079C118.072 147.079 150.505 114.646 150.505 74.6379C150.505 34.6299 118.072 2.19696 78.0644 2.19696C38.0565 2.19696 5.62378 34.6299 5.62378 74.6379C5.62378 114.646 38.0565 147.079 78.0644 147.079Z" fill="white"/>
<path fill-rule="evenodd" clip-rule="evenodd" d="M125.818 92.1624C127.047 56.9488 99.4981 27.4057 64.2846 26.176L64.416 22.4151C101.706 23.7173 130.881 55.003 129.579 92.2937L125.818 92.1624Z" fill="white"/>
<path fill-rule="evenodd" clip-rule="evenodd" d="M27.7735 94.6134C42.0398 110.308 62.7086 121.682 86.1263 122.854L85.9383 126.612C61.4046 125.385 39.8373 113.48 24.9889 97.1446C10.1613 80.8322 1.87779 59.9187 4.22622 40.5443C5.24863 32.1094 9.67637 27.4466 14.7149 25.1262C19.6174 22.8685 24.9604 22.8782 28.0415 23.3918L27.4228 27.1038C24.8592 26.6764 20.3241 26.6861 16.2891 28.5444C12.3901 30.3399 8.82119 33.9091 7.96203 40.9971C5.7765 59.0277 13.4864 78.8956 27.7735 94.6134Z" fill="white"/>
<path fill-rule="evenodd" clip-rule="evenodd" d="M109.392 11.5093C112.968 8.61648 116.699 7.50529 119.891 9.44791C121.322 10.3193 122.211 11.9364 122.493 13.7514C122.784 15.6283 122.355 17.2213 121.769 17.934L124.674 20.3261C126.174 18.5045 126.602 15.69 126.211 13.1744C125.811 10.5969 124.481 7.83639 121.847 6.23343C116.572 3.02226 111.01 5.36024 107.025 8.58368C104.985 10.2342 103.198 12.2273 101.816 14.1731C100.449 16.097 99.4005 18.0851 98.9385 19.7505L102.565 20.7563C102.868 19.6645 103.658 18.0782 104.884 16.3524C106.094 14.6486 107.653 12.9169 109.392 11.5093Z" fill="white"/>
<path fill-rule="evenodd" clip-rule="evenodd" d="M74.1283 65.6308C91.0005 63.0038 106.945 54.2076 118.286 39.6913L121.251 42.0082C109.298 57.3072 92.4866 66.5809 74.7073 69.3491L74.1283 65.6308Z" fill="white"/>
<path fill-rule="evenodd" clip-rule="evenodd" d="M41.0962 88.7106C40.0108 100.753 43.3228 113.214 51.3537 123.493L48.3883 125.81C39.7459 114.748 36.1804 101.33 37.3483 88.3728L41.0962 88.7106Z" fill="white"/>
<path fill-rule="evenodd" clip-rule="evenodd" d="M13.1042 67.0868C19.5131 60.8383 27.1716 56.5676 32.7272 54.5251L34.0258 58.0571C28.9192 59.9346 21.7263 63.9362 15.7312 69.7813C9.74157 75.6211 5.08832 83.1556 4.68057 92.1266C3.79175 111.682 17.4984 124.217 33.7847 127.836L32.9683 131.51C15.3864 127.603 -0.071361 113.796 0.921303 91.9558C1.38648 81.7213 6.6899 73.3407 13.1042 67.0868Z" fill="white"/>
<path fill-rule="evenodd" clip-rule="evenodd" d="M94.7428 139.591C90.6859 134.473 87.9339 128.554 86.6238 124.623L90.1938 123.433C91.3925 127.029 93.9559 132.541 97.6919 137.254C101.451 141.996 106.165 145.648 111.628 146.145C118.841 146.801 122.984 144.299 125.003 140.838C127.103 137.238 127.202 132.108 125.229 127.066L128.733 125.695C130.994 131.472 131.093 137.867 128.254 142.734C125.333 147.74 119.598 150.648 111.288 149.893C104.333 149.26 98.7769 144.681 94.7428 139.591Z" fill="white"/>
<path d="M46.1886 85.9295C46.1886 89.0471 43.6614 91.5743 40.5439 91.5743C37.4264 91.5743 34.8992 89.0471 34.8992 85.9295C34.8992 82.812 37.4264 80.2848 40.5439 80.2848C43.6614 80.2848 46.1886 82.812 46.1886 85.9295Z" fill="white"/>
<path d="M57.4777 128.264C57.4777 131.381 54.9505 133.908 51.833 133.908C48.7155 133.908 46.1882 131.381 46.1882 128.264C46.1882 125.146 48.7155 122.619 51.833 122.619C54.9505 122.619 57.4777 125.146 57.4777 128.264Z" fill="white"/>
<path d="M94.1688 125.442C94.1688 128.56 91.6416 131.087 88.5241 131.087C85.4066 131.087 82.8794 128.56 82.8794 125.442C82.8794 122.325 85.4066 119.797 88.5241 119.797C91.6416 119.797 94.1688 122.325 94.1688 125.442Z" fill="white"/>
<path d="M78.173 68.0512C78.173 71.1688 75.6458 73.696 72.5283 73.696C69.4108 73.696 66.8835 71.1688 66.8835 68.0512C66.8835 64.9337 69.4108 62.4065 72.5283 62.4065C75.6458 62.4065 78.173 64.9337 78.173 68.0512Z" fill="white"/>
<path d="M128.037 37.9465C128.037 41.064 125.51 43.5912 122.392 43.5912C119.275 43.5912 116.748 41.064 116.748 37.9465C116.748 34.829 119.275 32.3017 122.392 32.3017C125.51 32.3017 128.037 34.829 128.037 37.9465Z" fill="white"/>
<path d="M68.768 24.7765C68.768 27.894 66.2407 30.4212 63.1232 30.4212C60.0057 30.4212 57.4785 27.894 57.4785 24.7765C57.4785 21.659 60.0057 19.1317 63.1232 19.1317C66.2407 19.1317 68.768 21.659 68.768 24.7765Z" fill="white"/>
<path d="M105.456 22.8955C105.456 26.0131 102.929 28.5403 99.8115 28.5403C96.694 28.5403 94.1667 26.0131 94.1667 22.8955C94.1667 19.778 96.694 17.2508 99.8115 17.2508C102.929 17.2508 105.456 19.778 105.456 22.8955Z" fill="white"/>
<path d="M133.684 90.632C133.684 93.7495 131.157 96.2767 128.039 96.2767C124.922 96.2767 122.395 93.7495 122.395 90.632C122.395 87.5145 124.922 84.9872 128.039 84.9872C131.157 84.9872 133.684 87.5145 133.684 90.632Z" fill="white"/>
<path d="M41.4848 55.8218C41.4848 58.9393 38.9575 61.4665 35.84 61.4665C32.7225 61.4665 30.1953 58.9393 30.1953 55.8218C30.1953 52.7042 32.7225 50.177 35.84 50.177C38.9575 50.177 41.4848 52.7042 41.4848 55.8218Z" fill="white"/>
</svg>
