<svg width="25" height="25" viewBox="0 0 25 25" fill="none" xmlns="http://www.w3.org/2000/svg">
<path d="M15.0861 2.14551H6.08606C5.55563 2.14551 5.04692 2.35622 4.67185 2.73129C4.29677 3.10637 4.08606 3.61507 4.08606 4.14551V20.1455C4.08606 20.6759 4.29677 21.1846 4.67185 21.5597C5.04692 21.9348 5.55563 22.1455 6.08606 22.1455H18.0861C18.6165 22.1455 19.1252 21.9348 19.5003 21.5597C19.8753 21.1846 20.0861 20.6759 20.0861 20.1455V7.14551L15.0861 2.14551Z" stroke="#2563EB" stroke-width="2" stroke-linecap="round" stroke-linejoin="round"/>
<path d="M14.0861 2.14551V6.14551C14.0861 6.67594 14.2968 7.18465 14.6718 7.55972C15.0469 7.93479 15.5556 8.14551 16.0861 8.14551H20.0861" stroke="#2563EB" stroke-width="2" stroke-linecap="round" stroke-linejoin="round"/>
<path d="M10.0861 9.14551H8.08606" stroke="#2563EB" stroke-width="2" stroke-linecap="round" stroke-linejoin="round"/>
<path d="M16.0861 13.1455H8.08606" stroke="#2563EB" stroke-width="2" stroke-linecap="round" stroke-linejoin="round"/>
<path d="M16.0861 17.1455H8.08606" stroke="#2563EB" stroke-width="2" stroke-linecap="round" stroke-linejoin="round"/>
</svg>
