<svg width="25" height="25" viewBox="0 0 25 25" fill="none" xmlns="http://www.w3.org/2000/svg">
<path d="M15.0861 21.1455V13.1455C15.0861 12.8803 14.9807 12.6259 14.7932 12.4384C14.6056 12.2509 14.3513 12.1455 14.0861 12.1455H10.0861C9.82084 12.1455 9.56649 12.2509 9.37895 12.4384C9.19142 12.6259 9.08606 12.8803 9.08606 13.1455V21.1455" stroke="#374151" stroke-width="2" stroke-linecap="round" stroke-linejoin="round"/>
<path d="M3.08606 10.1455C3.08599 9.85454 3.14939 9.5671 3.27185 9.30319C3.3943 9.03929 3.57286 8.80527 3.79506 8.61748L10.7951 2.61848C11.156 2.31338 11.6134 2.146 12.0861 2.146C12.5587 2.146 13.0161 2.31338 13.3771 2.61848L20.3771 8.61748C20.5993 8.80527 20.7778 9.03929 20.9003 9.30319C21.0227 9.5671 21.0861 9.85454 21.0861 10.1455V19.1455C21.0861 19.6759 20.8753 20.1846 20.5003 20.5597C20.1252 20.9348 19.6165 21.1455 19.0861 21.1455H5.08606C4.55563 21.1455 4.04692 20.9348 3.67185 20.5597C3.29677 20.1846 3.08606 19.6759 3.08606 19.1455V10.1455Z" stroke="#374151" stroke-width="2" stroke-linecap="round" stroke-linejoin="round"/>
</svg>
