<svg width="42" height="43" viewBox="0 0 42 43" fill="none" xmlns="http://www.w3.org/2000/svg">
<path fill-rule="evenodd" clip-rule="evenodd" d="M20.1538 39.874C28.7327 39.874 35.6872 32.9195 35.6872 24.3406C35.6872 15.7617 28.7327 8.80713 20.1538 8.80713C11.5749 8.80713 4.6203 15.7617 4.6203 24.3406C4.6203 32.9195 11.5749 39.874 20.1538 39.874ZM20.1538 41.1867C29.4576 41.1867 36.9999 33.6445 36.9999 24.3406C36.9999 15.0367 29.4576 7.49445 20.1538 7.49445C10.8499 7.49445 3.30762 15.0367 3.30762 24.3406C3.30762 33.6445 10.8499 41.1867 20.1538 41.1867Z" fill="#ffffff"/>
<path fill-rule="evenodd" clip-rule="evenodd" d="M31.259 28.4159C31.545 20.227 25.1384 13.3567 16.9494 13.0708L16.98 12.1962C25.6519 12.499 32.4364 19.7745 32.1336 28.4464L31.259 28.4159Z" fill="#ffffff" stroke="#ffffff" stroke-width="0.5"/>
<path fill-rule="evenodd" clip-rule="evenodd" d="M8.45874 28.9859C11.7764 32.6357 16.5829 35.2807 22.0288 35.5532L21.985 36.4273C16.2797 36.1418 11.2642 33.3733 7.81117 29.5745C4.36299 25.7811 2.43666 20.9177 2.98279 16.4121C3.22055 14.4506 4.25023 13.3663 5.42195 12.8267C6.56201 12.3016 7.80456 12.3039 8.52106 12.4233L8.37717 13.2865C7.78101 13.1872 6.72636 13.1894 5.78801 13.6216C4.88131 14.0391 4.05135 14.8691 3.85155 16.5175C3.3433 20.7105 5.13625 25.3307 8.45874 28.9859Z" fill="#ffffff" stroke="#ffffff" stroke-width="0.5"/>
<path fill-rule="evenodd" clip-rule="evenodd" d="M27.4394 9.66004C28.2708 8.98732 29.1386 8.72891 29.8808 9.18067C30.2137 9.38332 30.4204 9.75937 30.4858 10.1814C30.5536 10.6179 30.4539 10.9884 30.3175 11.1541L30.993 11.7104C31.3418 11.2868 31.4414 10.6323 31.3506 10.0473C31.2576 9.44786 30.9482 8.80591 30.3358 8.43314C29.109 7.68639 27.8155 8.23008 26.8889 8.97969C26.4145 9.36351 25.9988 9.82702 25.6774 10.2795C25.3596 10.7269 25.1157 11.1892 25.0083 11.5765L25.8516 11.8104C25.922 11.5565 26.1058 11.1876 26.3908 10.7863C26.6723 10.3901 27.0348 9.98738 27.4394 9.66004Z" fill="#ffffff" stroke="#ffffff" stroke-width="0.5"/>
<path fill-rule="evenodd" clip-rule="evenodd" d="M19.2388 22.246C23.1624 21.6351 26.8703 19.5895 29.5077 16.2138L30.1973 16.7526C27.4176 20.3104 23.508 22.4669 19.3734 23.1107L19.2388 22.246Z" fill="#ffffff" stroke="#ffffff" stroke-width="0.5"/>
<path fill-rule="evenodd" clip-rule="evenodd" d="M11.5569 27.6132C11.3045 30.4137 12.0747 33.3114 13.9423 35.7018L13.2527 36.2406C11.2429 33.6681 10.4137 30.5478 10.6853 27.5346L11.5569 27.6132Z" fill="#ffffff" stroke="#ffffff" stroke-width="0.5"/>
<path fill-rule="evenodd" clip-rule="evenodd" d="M5.04733 22.5846C6.53773 21.1315 8.31872 20.1384 9.61069 19.6634L9.91266 20.4847C8.72512 20.9213 7.05241 21.8519 5.65825 23.2112C4.26534 24.5692 3.18322 26.3214 3.0884 28.4076C2.8817 32.9551 6.06919 35.8702 9.8566 36.7118L9.99989 37.5C5.6583 36.7118 1.98333 33.4467 2.21418 28.3679C2.32235 25.9878 3.55567 24.0389 5.04733 22.5846Z" fill="#ffffff" stroke="#ffffff" stroke-width="0.5"/>
<path fill-rule="evenodd" clip-rule="evenodd" d="M24.0326 39.4455C23.0892 38.2553 22.4492 36.8787 22.1445 35.9647L22.9747 35.688C23.2535 36.5242 23.8496 37.8058 24.7184 38.9019C25.5925 40.0046 26.6889 40.854 27.9594 40.9695C29.6368 41.122 30.6002 40.5402 31.0697 39.7354C31.558 38.8983 31.581 37.7053 31.1222 36.5328L31.9371 36.2139C32.4628 37.5573 32.4859 39.0444 31.8256 40.1763C31.1465 41.3405 29.8127 42.0167 27.8802 41.841C26.2628 41.694 24.9708 40.629 24.0326 39.4455Z" fill="#ffffff" stroke="#ffffff" stroke-width="0.5"/>
<path d="M12.7413 26.9665C12.7413 27.6914 12.1536 28.2792 11.4287 28.2792C10.7037 28.2792 10.116 27.6914 10.116 26.9665C10.116 26.2415 10.7037 25.6538 11.4287 25.6538C12.1536 25.6538 12.7413 26.2415 12.7413 26.9665Z" fill="#ffffff"/>
<path d="M15.3666 36.8112C15.3666 37.5362 14.7789 38.1239 14.0539 38.1239C13.3289 38.1239 12.7412 37.5362 12.7412 36.8112C12.7412 36.0862 13.3289 35.4985 14.0539 35.4985C14.7789 35.4985 15.3666 36.0862 15.3666 36.8112Z" fill="#ffffff"/>
<path d="M23.8991 36.1551C23.8991 36.8801 23.3113 37.4678 22.5864 37.4678C21.8614 37.4678 21.2737 36.8801 21.2737 36.1551C21.2737 35.4301 21.8614 34.8424 22.5864 34.8424C23.3113 34.8424 23.8991 35.4301 23.8991 36.1551Z" fill="#ffffff"/>
<path d="M20.1793 22.8089C20.1793 23.5338 19.5916 24.1216 18.8666 24.1216C18.1417 24.1216 17.554 23.5338 17.554 22.8089C17.554 22.0839 18.1417 21.4962 18.8666 21.4962C19.5916 21.4962 20.1793 22.0839 20.1793 22.8089Z" fill="#ffffff"/>
<path d="M31.7753 15.808C31.7753 16.533 31.1876 17.1207 30.4626 17.1207C29.7376 17.1207 29.1499 16.533 29.1499 15.808C29.1499 15.083 29.7376 14.4953 30.4626 14.4953C31.1876 14.4953 31.7753 15.083 31.7753 15.808Z" fill="#ffffff"/>
<path d="M17.9921 12.7453C17.9921 13.4703 17.4044 14.058 16.6794 14.058C15.9544 14.058 15.3667 13.4703 15.3667 12.7453C15.3667 12.0204 15.9544 11.4326 16.6794 11.4326C17.4044 11.4326 17.9921 12.0204 17.9921 12.7453Z" fill="#ffffff"/>
<path d="M26.5241 12.3079C26.5241 13.0329 25.9363 13.6206 25.2114 13.6206C24.4864 13.6206 23.8987 13.0329 23.8987 12.3079C23.8987 11.5829 24.4864 10.9952 25.2114 10.9952C25.9363 10.9952 26.5241 11.5829 26.5241 12.3079Z" fill="#ffffff"/>
<path d="M33.0885 28.06C33.0885 28.785 32.5008 29.3727 31.7758 29.3727C31.0508 29.3727 30.4631 28.785 30.4631 28.06C30.4631 27.335 31.0508 26.7473 31.7758 26.7473C32.5008 26.7473 33.0885 27.335 33.0885 28.06Z" fill="#ffffff"/>
<path d="M11.6473 19.9649C11.6473 20.6899 11.0596 21.2776 10.3347 21.2776C9.60968 21.2776 9.02197 20.6899 9.02197 19.9649C9.02197 19.2399 9.60968 18.6522 10.3347 18.6522C11.0596 18.6522 11.6473 19.2399 11.6473 19.9649Z" fill="#ffffff"/>
</svg>
