<svg width="33" height="32" viewBox="0 0 33 32" fill="none" xmlns="http://www.w3.org/2000/svg">
<path fill-rule="evenodd" clip-rule="evenodd" d="M16.6526 30.1705C24.5219 30.1705 30.9013 23.7911 30.9013 15.9217C30.9013 8.05228 24.5219 1.67287 16.6526 1.67287C8.7832 1.67287 2.40383 8.05228 2.40383 15.9217C2.40383 23.7911 8.7832 30.1705 16.6526 30.1705ZM16.6526 31.3746C25.1869 31.3746 32.1054 24.4561 32.1054 15.9217C32.1054 7.38726 25.1869 0.46875 16.6526 0.46875C8.11818 0.46875 1.19971 7.38726 1.19971 15.9217C1.19971 24.4561 8.11818 31.3746 16.6526 31.3746Z" fill="#3E5CAF"/>
<path fill-rule="evenodd" clip-rule="evenodd" d="M26.8391 19.66C27.1014 12.1483 21.2246 5.84627 13.713 5.58396L13.741 4.7817C21.6957 5.05948 27.9191 11.7333 27.6413 19.688L26.8391 19.66Z" fill="#3E5CAF"/>
<path fill-rule="evenodd" clip-rule="evenodd" d="M5.92465 20.1828C8.9679 23.5308 13.3769 25.957 18.3723 26.207L18.3322 27.0088C13.0987 26.7469 8.49807 24.2074 5.33064 20.7228C2.16765 17.2431 0.400636 12.7818 0.901596 8.64894C1.11969 6.84964 2.06421 5.85498 3.13902 5.36C4.18479 4.87839 5.32457 4.88045 5.98182 4.99001L5.84983 5.78184C5.30297 5.69068 4.33555 5.69275 3.47481 6.08914C2.6431 6.47217 1.88178 7.23353 1.69851 8.74554C1.2323 12.5918 2.87695 16.8299 5.92465 20.1828Z" fill="#3E5CAF"/>
<path fill-rule="evenodd" clip-rule="evenodd" d="M23.3354 2.45525C24.0981 1.83818 24.8941 1.60114 25.5749 2.01553C25.8803 2.20142 26.0699 2.54638 26.1299 2.93354C26.192 3.33392 26.1007 3.67374 25.9755 3.82577L26.5952 4.33604C26.9151 3.94746 27.0064 3.34709 26.9232 2.81047C26.8379 2.26063 26.554 1.67177 25.9923 1.32983C24.867 0.644831 23.6804 1.14356 22.8305 1.83118C22.3953 2.18325 22.014 2.60843 21.7192 3.02351C21.4277 3.43389 21.204 3.858 21.1054 4.21326L21.879 4.42781C21.9436 4.19491 22.1121 3.85653 22.3736 3.48838C22.6318 3.12493 22.9643 2.75553 23.3354 2.45525Z" fill="#3E5CAF"/>
<path fill-rule="evenodd" clip-rule="evenodd" d="M15.813 14C19.4121 13.4397 22.8133 11.5633 25.2326 8.46671L25.8652 8.96093C23.3154 12.2245 19.7291 14.2027 15.9365 14.7932L15.813 14Z" fill="#3E5CAF"/>
<path fill-rule="evenodd" clip-rule="evenodd" d="M8.76657 18.9234C8.53503 21.4924 9.24155 24.1504 10.9547 26.3431L10.3221 26.8373C8.47852 24.4776 7.71794 21.6153 7.96706 18.8513L8.76657 18.9234Z" fill="#3E5CAF"/>
<path fill-rule="evenodd" clip-rule="evenodd" d="M2.79527 14.311C4.1624 12.9781 5.79608 12.0671 6.9812 11.6313L7.2582 12.3848C6.16887 12.7853 4.63451 13.6389 3.35566 14.8858C2.07795 16.1315 1.08533 17.7387 0.998354 19.6524C0.808753 23.8239 3.73261 26.4978 7.20677 27.2699L7.03263 28.0535C3.28209 27.22 -0.0153161 24.2748 0.196437 19.616C0.295668 17.4328 1.42698 15.645 2.79527 14.311Z" fill="#3E5CAF"/>
<path fill-rule="evenodd" clip-rule="evenodd" d="M20.2104 29.7773C19.345 28.6856 18.758 27.4228 18.4785 26.5844L19.2401 26.3306C19.4958 27.0977 20.0426 28.2733 20.8395 29.2787C21.6413 30.2902 22.647 31.0693 23.8124 31.1753C25.3511 31.3152 26.2348 30.7815 26.6655 30.0432C27.1134 29.2753 27.1345 28.181 26.7137 27.1055L27.4612 26.813C27.9434 28.0453 27.9645 29.4094 27.3589 30.4477C26.7359 31.5156 25.5125 32.1359 23.7398 31.9747C22.2561 31.8399 21.071 30.863 20.2104 29.7773Z" fill="#3E5CAF"/>
<path d="M9.85282 18.3306C9.85282 18.9956 9.31371 19.5347 8.6487 19.5347C7.98368 19.5347 7.44458 18.9956 7.44458 18.3306C7.44458 17.6656 7.98368 17.1265 8.6487 17.1265C9.31371 17.1265 9.85282 17.6656 9.85282 18.3306Z" fill="#3E5CAF"/>
<path d="M12.261 27.3609C12.261 28.0259 11.7219 28.565 11.0569 28.565C10.3919 28.565 9.85278 28.0259 9.85278 27.3609C9.85278 26.6958 10.3919 26.1567 11.0569 26.1567C11.7219 26.1567 12.261 26.6958 12.261 27.3609Z" fill="#3E5CAF"/>
<path d="M20.0879 26.7593C20.0879 27.4243 19.5488 27.9634 18.8838 27.9634C18.2188 27.9634 17.6797 27.4243 17.6797 26.7593C17.6797 26.0943 18.2188 25.5552 18.8838 25.5552C19.5488 25.5552 20.0879 26.0943 20.0879 26.7593Z" fill="#3E5CAF"/>
<path d="M16.6758 14.5166C16.6758 15.1816 16.1367 15.7207 15.4717 15.7207C14.8067 15.7207 14.2676 15.1816 14.2676 14.5166C14.2676 13.8516 14.8067 13.3125 15.4717 13.3125C16.1367 13.3125 16.6758 13.8516 16.6758 14.5166Z" fill="#3E5CAF"/>
<path d="M27.3125 8.09475C27.3125 8.75977 26.7734 9.29887 26.1084 9.29887C25.4434 9.29887 24.9043 8.75977 24.9043 8.09475C24.9043 7.42973 25.4434 6.89062 26.1084 6.89062C26.7734 6.89062 27.3125 7.42973 27.3125 8.09475Z" fill="#3E5CAF"/>
<path d="M14.6695 5.28518C14.6695 5.9502 14.1304 6.4893 13.4653 6.4893C12.8003 6.4893 12.2612 5.9502 12.2612 5.28518C12.2612 4.62016 12.8003 4.08105 13.4653 4.08105C14.1304 4.08105 14.6695 4.62016 14.6695 5.28518Z" fill="#3E5CAF"/>
<path d="M22.4956 4.8843C22.4956 5.54932 21.9565 6.08843 21.2915 6.08843C20.6265 6.08843 20.0874 5.54932 20.0874 4.8843C20.0874 4.21928 20.6265 3.68018 21.2915 3.68018C21.9565 3.68018 22.4956 4.21928 22.4956 4.8843Z" fill="#3E5CAF"/>
<path d="M28.5171 19.3335C28.5171 19.9985 27.978 20.5376 27.313 20.5376C26.648 20.5376 26.1089 19.9985 26.1089 19.3335C26.1089 18.6685 26.648 18.1294 27.313 18.1294C27.978 18.1294 28.5171 18.6685 28.5171 19.3335Z" fill="#3E5CAF"/>
<path d="M8.8494 11.9077C8.8494 12.5728 8.3103 13.1119 7.64528 13.1119C6.98026 13.1119 6.44116 12.5728 6.44116 11.9077C6.44116 11.2427 6.98026 10.7036 7.64528 10.7036C8.3103 10.7036 8.8494 11.2427 8.8494 11.9077Z" fill="#3E5CAF"/>
</svg>
